<?xml version="1.0" encoding="utf-8"?>
<!-- Generator: Adobe Illustrator 24.2.1, SVG Export Plug-In . SVG Version: 6.00 Build 0)  -->
<svg version="1.1" id="レイヤー_1" xmlns="http://www.w3.org/2000/svg" xmlns:xlink="http://www.w3.org/1999/xlink" x="0px"
	 y="0px" viewBox="0 0 386 311.5" style="enable-background:new 0 0 386 311.5;" xml:space="preserve">
<style type="text/css">
	.st0{fill:#FFFFFF;}
</style>
<g id="グループ_7" transform="translate(-80.597 -345.954)">
	<g id="グループ_2" transform="translate(131.448 506.707)">
		<g id="グループ_1">
			<path id="パス_1" class="st0" d="M21.4,45.2c-0.6,0-0.8-0.3-0.9-0.9c-0.1-0.5-0.1-0.9-0.1-1.4V30.7c0.1-0.5,0-1.1-0.1-1.6
				L20.2,29c-0.1,0-0.1,0-0.1,0.1c-0.1,0.1-0.2,0.2-0.2,0.4c-0.2,0.9-0.4,1.6-0.6,2.5l-2.4,10.8c-0.6,2.7-0.3,2.4-3.1,2.5
				c-0.9,0-1.6,0-2.5-0.1c-0.8,0-1-0.1-1.2-0.9c-0.1-0.5-0.2-0.9-0.3-1.4C8.9,39,8.1,35,7.3,31.1l-0.4-1.6c-0.1-0.1-0.1-0.4-0.3-0.4
				c-0.3,0-0.2,0.3-0.2,0.4c-0.1,0.6-0.1,1.3-0.1,1.9v11.5c0,2.2,0,2.2-2.1,2.2c-1.1,0-2.1,0-3.2-0.1c-0.6,0-0.9-0.3-0.9-0.9
				c0-0.4,0-0.9,0-1.3V2.3c0-0.5,0-1,0-1.4c0.1-0.5,0.3-0.8,0.8-0.8c1.6-0.1,3.3,0,4.9,0c0.4,0,0.7,0.3,0.8,0.6
				c0.1,0.4,0.2,0.9,0.4,1.4c1.9,8.6,3.8,17.3,5.7,25.8c0.1,0.6,0.4,1.2,0.5,1.9c0.1,0.1,0.2,0.1,0.3,0.1c0.1,0,0.2-0.1,0.2-0.1
				l0.4-1.2c0.5-2.1,0.9-4.4,1.4-6.6c1.5-6.6,2.9-13.1,4.4-19.7c0.1-0.5,0.2-1,0.4-1.5c0.1-0.4,0.5-0.8,0.9-0.7
				c1.6-0.1,3.1-0.1,4.7,0c0.6,0,0.9,0.3,0.9,0.9c0.1,0.5,0.1,0.9,0.1,1.4v40.8c0,2.1,0,2.1-2.1,2.1C23.6,45.3,22.5,45.3,21.4,45.2z
				"/>
			<path id="パス_2" class="st0" d="M35.2,36.2V17.7c-0.1-5.1,4-9.2,9.1-9.3s9.2,4,9.3,9.1c0,0.1,0,0.1,0,0.2v18.5
				c-0.1,5.1-4.2,9.1-9.3,9.1C39.3,45.3,35.2,41.2,35.2,36.2z M47.3,36.2V17.7c0-1.6-1.3-3-3-3c-1.6,0-3,1.3-3,3v18.5
				c0,1.6,1.4,2.9,3,2.9C46,39.2,47.3,37.9,47.3,36.2L47.3,36.2z"/>
			<path id="パス_3" class="st0" d="M63,45.1c-0.6,0-0.8-0.3-0.9-0.9c0-0.5,0-1,0-1.4V27.1c0-5.4-0.1-10.6,0-15.9
				c0-2.1,0-2.1,1.9-2.1c2.6,0,5.1,0.1,7.6,0C76.7,9,80.8,13,81,18c0,0.1,0,0.2,0,0.3v3c0,2-0.6,4-1.9,5.6l-0.4,0.6
				c-0.3,0.3-0.3,0.8-0.1,1.2c0.1,0.2,0.2,0.4,0.3,0.6c0.7,1.3,1.1,2.7,1.1,4.2v10.7c-0.1,0.6-0.3,0.9-0.9,0.9
				c-1.5,0.1-2.9,0.1-4.4,0c-0.6,0-0.9-0.3-0.9-1c0-0.5,0-1,0-1.4c0-2.6,0-5.4-0.1-8c0-0.5,0-1.1-0.1-1.6c-0.1-1.2-1-2.2-2.2-2.4
				c-0.6-0.2-1.3-0.2-2-0.1c-0.6,0-0.8,0.3-0.9,0.8v11.8c0,1.9,0,1.9-1.9,2C65.4,45.2,64.2,45.2,63,45.1z M74.7,21.5v-1.6
				c0-0.6,0-1.1-0.1-1.7c0-1.5-1.2-2.7-2.7-2.7c-0.8-0.1-1.7-0.1-2.5,0c-0.7,0-0.9,0.3-1,0.9v6.8c0,0.8,0.3,1,1,1.1h2.4
				C73.3,24.2,74.6,23,74.7,21.5L74.7,21.5z"/>
			<path id="パス_4" class="st0" d="M89.8,45.1c-0.8,0-1-0.2-1-1.1c0-0.5,0-0.9,0-1.4V27c0-5.3-0.1-10.6,0-15.8c0-2.1,0-2.1,2-2.1
				c1.1,0,2.2,0,3.3,0.1c0.7,0,0.9,0.2,0.9,0.9c0.1,0.4,0.1,0.9,0.1,1.3v31.5c0,0.5,0,1-0.1,1.6c0,0.3-0.3,0.6-0.6,0.6h-0.3
				C92.7,45.1,91.2,45.2,89.8,45.1z"/>
			<path id="パス_5" class="st0" d="M130.7,43.5c-1.1-2.6-2.3-5.2-3.5-7.8c-1.3-2.9-2.6-5.9-4-8.8l-0.6-1.3
				c-0.1-0.1-0.2-0.1-0.3-0.1c-0.1,0-0.2,0.1-0.2,0.1c0,0.6-0.1,1.1-0.1,1.6v15.6c0,0.5,0,0.9-0.1,1.4c0,0.3-0.3,0.6-0.6,0.6
				c-0.3,0-0.5,0.1-0.8,0.1h-3.3c-1.4-0.1-1.5-0.1-1.5-1.6c0-0.2,0-0.4,0-0.6c0-10.4-0.1-20.9,0-31.3c0-2.2,0-2.2,2.1-2.2
				c1.1,0,2.2-0.1,3.3-0.1c0.7-0.1,1.3,0.3,1.5,0.9c0.2,0.4,0.4,0.9,0.6,1.3l6.6,14.8c0.1,0.6,0.4,1.2,0.9,1.6
				c0.7-0.5,0.4-1.2,0.4-1.9V11.2c0-0.5,0-1,0.1-1.4c0-0.3,0.3-0.6,0.6-0.6c0,0,0,0,0.1,0c0.3-0.1,0.5-0.1,0.8-0.1h3.3
				c1.4,0,1.6,0.1,1.6,1.6V43c0,2.1,0,2.1-2,2.1h-2.3C131.4,45.1,131.4,45.1,130.7,43.5z"/>
			<path id="パス_6" class="st0" d="M145.9,36.2V17.7c0-5.1,4.1-9.2,9.2-9.2c5.1,0,9.2,4.1,9.2,9.2v18.5c0,5.1-4.1,9.2-9.2,9.2
				C150,45.4,145.9,41.3,145.9,36.2z M158.1,36.2V17.7c0-1.6-1.3-3-3-3c-1.6,0-3,1.3-3,3v18.5c0,1.6,1.4,2.9,3,2.9
				C156.7,39.2,158.1,37.9,158.1,36.2z"/>
			<path id="パス_7" class="st0" d="M184.9,45.3c-1.1-0.1-1.3-0.3-1.3-1.4c0-0.4,0-0.9,0-1.3V2.2c0-2.2,0-2.2,2.1-2.2
				c1,0,2.1,0,3.1,0.1c0.7,0,0.9,0.2,0.9,0.9c0.1,0.4,0.1,0.9,0.1,1.3v9.9c0,0.4,0.1,0.9,0.1,1.4c0.1,0.1,0.1,0.2,0.3,0.2
				c0.1,0,0.2,0,0.2-0.1c0.3-0.3,0.5-0.7,0.6-1.1c1.9-3.6,3.6-7.1,5.4-10.7c1.1-2,0.9-1.9,3.1-1.9h3.3c0.3,0,0.6,0,0.9,0.1
				c0.3,0.1,0.4,0.4,0.4,0.6c0,0,0,0,0,0l-0.4,1c-1.3,2.6-2.6,5.1-3.9,7.6c-1.6,3.1-3.1,6.1-4.6,9.1c-0.6,0.9-0.6,2.1-0.1,3
				c3.2,7.1,6.3,14.3,9.6,21.4c0.2,0.5,0.4,0.9,0.6,1.4c0.2,0.5-0.1,0.8-0.6,0.9c-0.4,0.1-0.8,0.1-1.1,0.1c-1.1,0-2.4-0.1-3.6,0
				c-0.8,0.1-1.5-0.4-1.7-1.1c-1-2.3-2.1-4.6-3.1-6.9c-1.1-2.6-2.4-5.3-3.5-7.9l-0.6-1.1c-0.2-0.4-0.6-0.3-0.8,0
				c-0.4,0.6-0.6,1.2-0.6,1.9v13.4c0,1.8-0.1,1.8-1.9,1.9L184.9,45.3z"/>
			<path id="パス_8" class="st0" d="M210,36.8c0-0.4,0-0.8,0-1.2c0-8.1-0.1-16.2,0-24.3c0-2.1,0-2.1,2.1-2.1h2.7
				c1.2,0.1,1.4,0.2,1.4,1.5v24c0,0.5,0,1,0,1.6c0.1,1.6,1.4,2.8,2.9,2.8c1.5,0,2.8-1.2,2.9-2.8c0.1-0.5,0.1-1,0.1-1.6V11.4
				c0-0.5,0-1,0.1-1.6c0-0.3,0.2-0.5,0.6-0.6c0.2-0.1,0.3-0.1,0.5-0.1h3.9c1,0,1.1,0.2,1.2,1.3v25.6c0.1,5.1-4,9.3-9.1,9.3
				C214.4,45.5,210.3,41.7,210,36.8L210,36.8z"/>
			<path id="パス_9" class="st0" d="M251.8,43.5c-1.1-2.6-2.3-5.2-3.5-7.8c-1.3-2.9-2.6-5.9-4-8.8l-0.6-1.3
				c-0.1-0.1-0.2-0.1-0.3-0.1c-0.1,0-0.2,0.1-0.2,0.1c0,0.6-0.1,1.1-0.1,1.6v15.6c0,0.5,0,0.9-0.1,1.4c0,0.3-0.3,0.6-0.6,0.6
				c-0.3,0-0.5,0.1-0.8,0.1h-3.3c-1.4-0.1-1.5-0.1-1.5-1.6c0-0.2,0-0.4,0-0.6c0-10.4-0.1-20.9,0-31.3c0-2.2,0-2.2,2.1-2.2
				c1.1,0,2.2-0.1,3.3-0.1c0.7-0.1,1.3,0.3,1.5,0.9c0.2,0.4,0.4,0.9,0.6,1.3l6.6,14.8c0.1,0.6,0.4,1.2,0.9,1.6
				c0.7-0.5,0.4-1.2,0.4-1.9V11.2c0-0.5,0-1,0.1-1.4c0-0.3,0.3-0.6,0.6-0.6c0,0,0,0,0.1,0c0.3-0.1,0.5-0.1,0.8-0.1h3.3
				c1.4,0,1.6,0.1,1.6,1.6V43c0,2.1,0,2.1-2,2.1h-2.4C252.6,45.1,252.6,45.1,251.8,43.5z"/>
			<path id="パス_10" class="st0" d="M268.2,45.1c-0.8,0-1-0.2-1-1.1c0-0.5,0-0.9,0-1.4V27c0-5.3-0.1-10.6,0-15.8
				c0-2.1,0-2.1,2-2.1c1.1,0,2.2,0,3.3,0.1c0.7,0,0.9,0.2,0.9,0.9c0.1,0.4,0.1,0.9,0.1,1.3v31.5c0,0.5,0,1-0.1,1.6
				c0,0.3-0.3,0.6-0.6,0.6h-0.3C271,45.1,269.6,45.2,268.2,45.1z"/>
		</g>
	</g>
	<g id="グループ_4" transform="translate(176.237 577.398)">
		<g id="グループ_3">
			<path id="パス_11" class="st0" d="M9.3,32c-0.5,0-0.7-0.2-0.7-0.7c0-0.4-0.1-0.7-0.1-1.1V19.8c0-0.4,0-0.7-0.1-1.1
				c0-0.2-0.2-0.4-0.4-0.5c-0.2,0-0.4-0.1-0.6-0.1h-2c-1,0-1.1,0.1-1.1,1.1v11.1c0,0.3,0,0.6,0,1c0,0.4-0.2,0.6-0.6,0.6H0.5
				C0.2,32,0,31.8,0,31.4c0-0.4,0-0.7,0-1.1C0,25.5,0,20.8,0,16C0,11.2,0,6.4,0,1.6C0,0,0,0,1.5,0C2.3,0,3,0,3.8,0.1
				c0.5,0,0.7,0.1,0.7,0.7c0,0.3,0.1,0.7,0,1v10.6c0,1.4,0,1.4,1.4,1.4h1.8c0.8-0.1,0.9-0.2,0.9-1v-0.9c0-3,0-6.1,0.1-9.2
				C8.5,1.9,8.6,1,8.8,0.2c0.9-0.4,1.7-0.1,2.6-0.2c0.3,0,0.7,0,1,0.1c0.4,0,0.6,0.1,0.6,0.6c0,0.3,0.1,0.6,0.1,0.9v28.9
				c0,1.6,0,1.6-1.5,1.6C10.8,32,10,32,9.3,32z"/>
			<path id="パス_12" class="st0" d="M21.4,32c-0.5-0.1-0.6-0.2-0.7-0.6c0-0.3,0-0.7,0-1c-0.1-3.7,0-7.3,0-11
				c0-3.7-0.1-7.4,0-11.2c0-0.3,0-0.6,0-1c0.1-0.4,0.2-0.6,0.6-0.6H22c2.8,0,5.7,0,8.5,0c1.3,0,1.3,0,1.3,1.3v2.3
				c0,0.6-0.2,0.8-0.8,0.8C30.1,11,29.3,11,28.4,11c-0.8,0-1.6-0.1-2.3,0c-0.7,0-0.9,0.1-0.9,0.8v4.4c0,0.7,0.2,0.8,0.8,0.8
				c0.7,0.1,1.3,0.1,2,0.1h0.9c0.5,0,0.6,0.2,0.7,0.6c0,1.1,0,2.2-0.1,3.2c0,0.3-0.2,0.5-0.4,0.6c0,0-0.1,0-0.1,0
				c-0.8,0-1.5,0-2.2,0c-1.5,0-1.5,0-1.5,1.6v3.2c0,0.3,0,0.5,0.1,0.8c0,0.2,0.2,0.4,0.5,0.4c0.3,0,0.6,0.1,0.9,0.1h3.9
				c0.3,0,0.5,0,0.8,0.1c0.3,0,0.6,0.2,0.6,0.5c0,0,0,0,0,0c0,1.2,0,2.3-0.1,3.5c0,0.2-0.2,0.4-0.4,0.5c-0.3,0-0.5,0.1-0.8,0.1h-8.7
				C21.7,32.1,21.6,32,21.4,32z"/>
			<path id="パス_13" class="st0" d="M37,32c-0.5,0-0.7-0.2-0.6-0.7l0.2-1c1.5-7.4,3-14.9,4.6-22.4c0.3-1.4,0.3-1.4,1.7-1.4h2.8
				c1.2,0,1.2,0.1,1.4,1.2c0.4,1.9,0.8,3.8,1.2,5.8c1.2,5.6,2.3,11.2,3.4,16.7c0.1,0.4,0.1,0.7,0.2,1.1c0.1,0.6-0.1,0.8-0.7,0.8
				c-0.5,0-1,0-1.6,0H48c-0.4,0-0.7-0.2-0.8-0.6l-0.2-1c-0.2-1-0.4-2-0.6-3c0-0.3-0.1-0.6-0.2-0.9c0-0.3-0.3-0.5-0.6-0.5h-3.2
				c-0.2,0-0.4,0.2-0.5,0.4c0,0.3-0.1,0.6-0.2,0.9l-0.6,3.1c-0.1,0.3-0.2,0.6-0.2,0.9c-0.2,0.5-0.3,0.6-0.8,0.6
				c-0.2,0-0.4,0.1-0.6,0.1C38.7,32,37.9,32,37,32z M44.5,21.7c0.5,0,0.7-0.2,0.6-0.7c-0.3-1.3-0.6-2.5-0.8-3.8
				c0-0.1-0.1-0.2-0.2-0.3c-0.2,0-0.2,0.1-0.3,0.2c-0.3,1.3-0.6,2.6-0.8,3.9c-0.1,0.2,0.1,0.5,0.3,0.6c0,0,0.1,0,0.1,0L44.5,21.7
				L44.5,21.7z"/>
			<path id="パス_14" class="st0" d="M57.1,31.2c0-0.3,0-0.6,0-1V19.3c0-3.8-0.1-7.5,0-11.3c0-1.4,0-1.4,1.4-1.4
				c1.8,0,3.6,0,5.5,0c3.6,0,6.5,2.9,6.5,6.5c0.1,4.1,0.1,8.3,0,12.4c0,3.4-2.6,6.2-6,6.5c-0.1,0-0.2,0.1-0.4,0.1
				c-2.1,0-4.1,0.1-6.2,0C57.2,32,57.1,31.8,57.1,31.2z M64.1,27.5c0.9,0,1.7-0.7,1.9-1.7c0-0.3,0.1-0.5,0.1-0.8V13.4
				c0-0.2,0-0.4-0.1-0.7c-0.2-0.9-1-1.7-1.9-1.7c-0.6-0.1-1.2,0-1.8,0c-0.5,0-0.7,0.2-0.7,0.7v15.2c0.1,0.4,0.2,0.6,0.7,0.6
				C62.8,27.5,63.5,27.5,64.1,27.5L64.1,27.5z"/>
			<path id="パス_15" class="st0" d="M77,29.1c-0.3-0.8-0.5-1.7-0.5-2.6c-0.1-0.7-0.1-1.4,0-2.1c0-0.4,0.2-0.5,0.6-0.6h3.1
				c0.3,0,0.6,0.3,0.6,0.6c0.1,0.5,0,1,0.1,1.5c0,0.4,0,0.7,0.1,1.1c0.1,0.8,0.8,1.5,1.7,1.4c0.9,0.1,1.7-0.5,1.8-1.3
				c0.2-1.1,0-2.3-0.6-3.3c-0.5-0.8-1.1-1.5-1.8-2.2l-2.4-2.2c-0.3-0.3-0.6-0.7-0.9-1c-1.9-2.2-2.6-5.3-1.8-8.1
				c0.4-2.4,2.5-4.1,4.9-4.2c0.9-0.1,1.8-0.1,2.7,0.1c1.9,0.3,3.5,1.7,4.1,3.5c0.3,1.1,0.5,2.3,0.4,3.4c0,0.3-0.2,0.6-0.5,0.6
				c-0.1,0-0.1,0-0.2,0c-0.5,0.1-1.1,0-1.6,0h-1.6c-0.3,0-0.5-0.2-0.5-0.5c0-0.3,0-0.5,0-0.8c0-0.3,0-0.7-0.1-1
				c-0.1-0.8-0.9-1.4-1.7-1.3c-0.8-0.1-1.5,0.5-1.6,1.3c-0.2,1.1-0.1,2.2,0.4,3.1c0.3,0.7,0.8,1.2,1.3,1.8l2.4,2.3
				c0.8,0.7,1.5,1.6,2.1,2.5c1.6,2.4,1.9,5.3,1,8c-0.5,1.7-1.9,3-3.7,3.4c-1.3,0.3-2.8,0.3-4.1,0C79,32,77.6,30.7,77,29.1z"/>
			<path id="パス_16" class="st0" d="M98.5,31.4c0-0.3-0.1-0.7-0.1-1V12.2c0-1.1-0.1-1.1-1.2-1.1h-2.7c-1.1-0.1-1.2-0.1-1.2-1.2
				c-0.1-0.9-0.1-1.8,0-2.6c0-0.6,0.2-0.7,0.7-0.7c0.3,0,0.5-0.1,0.8-0.1h11.7c0.3,0,0.5,0,0.8,0.1c0.5,0,0.7,0.2,0.7,0.7
				c0.1,1,0.1,2,0.1,3c-0.1,0.6-0.2,0.8-0.9,0.8h-2.7c-1.6,0-1.6,0-1.6,1.5v18.8c-0.1,0.4-0.2,0.6-0.6,0.6h-3.3
				c-0.3,0-0.5-0.2-0.6-0.4C98.5,31.5,98.5,31.5,98.5,31.4z"/>
			<path id="パス_17" class="st0" d="M113.5,32c-0.4,0-0.6-0.2-0.6-0.6c0-0.3,0-0.7,0-1V19.2c0-3.8-0.1-7.5,0-11.3
				c0-1.5,0-1.5,1.4-1.5c1.8,0,3.6,0.1,5.4,0c3.6-0.1,6.5,2.7,6.6,6.3c0,0.1,0,0.1,0,0.2v2.1c0,1.4-0.5,2.8-1.3,3.9l-0.3,0.5
				c-0.2,0.2-0.2,0.6-0.1,0.9c0.1,0.1,0.2,0.3,0.2,0.4c0.5,0.9,0.8,1.9,0.8,3v7.6c-0.1,0.4-0.2,0.6-0.7,0.6c-1,0.1-2.1,0.1-3.1,0
				c-0.5,0-0.6-0.2-0.7-0.7c0-0.3,0-0.7,0-1c0-1.9,0-3.8-0.1-5.7c0-0.4,0-0.7-0.1-1.1c-0.1-0.8-0.7-1.5-1.6-1.7
				c-0.5-0.1-0.9-0.2-1.4-0.1c-0.4,0-0.6,0.2-0.6,0.6v8.3c0,1.4,0,1.4-1.4,1.4C115.2,32,114.4,32,113.5,32z M121.8,15.2v-1.1
				c0-0.4,0-0.8-0.1-1.2c0-1-0.9-1.9-1.9-1.9c-0.6-0.1-1.2-0.1-1.8,0c-0.5,0-0.7,0.2-0.7,0.7v4.8c0,0.6,0.2,0.7,0.7,0.8h1.7
				C120.8,17.2,121.7,16.3,121.8,15.2L121.8,15.2z"/>
			<path id="パス_18" class="st0" d="M132.5,32c-0.5-0.1-0.6-0.2-0.7-0.6c0-0.3,0-0.7,0-1c-0.1-3.7,0-7.3,0-11
				c0-3.7-0.1-7.4,0-11.2c0-0.3,0-0.6,0-1c0-0.4,0.2-0.6,0.6-0.6h0.8c2.8,0,5.7,0,8.5,0c1.3,0,1.3,0,1.3,1.3v2.3
				c0,0.6-0.2,0.8-0.8,0.8c-0.9,0.1-1.8,0.1-2.7,0.1c-0.8,0-1.6-0.1-2.3,0c-0.7,0-0.9,0.1-0.9,0.8v4.4c0,0.7,0.2,0.8,0.8,0.8
				c0.7,0.1,1.3,0.1,2,0.1h0.9c0.5,0,0.6,0.2,0.7,0.6c0,1.1,0,2.2-0.1,3.2c0,0.3-0.2,0.5-0.4,0.6c0,0-0.1,0-0.1,0
				c-0.8,0-1.5,0-2.2,0c-1.5,0-1.5,0-1.5,1.6v3.2c0,0.3,0,0.5,0.1,0.8c0,0.2,0.2,0.4,0.5,0.4c0.3,0,0.6,0.1,0.9,0.1h3.9
				c0.3,0,0.5,0,0.8,0.1c0.3,0,0.6,0.2,0.6,0.5c0,0,0,0,0,0c0,1.2,0,2.3-0.1,3.5c0,0.2-0.2,0.4-0.4,0.5c-0.3,0-0.5,0.1-0.8,0.1H133
				C132.8,32.1,132.7,32,132.5,32z"/>
			<path id="パス_19" class="st0" d="M148.5,32c-0.5,0-0.7-0.2-0.6-0.7l0.1-1c1.5-7.4,3-14.9,4.6-22.4c0.3-1.4,0.3-1.4,1.7-1.4
				h2.8c1.2,0,1.2,0.1,1.4,1.2c0.4,1.9,0.8,3.8,1.2,5.8c1.2,5.6,2.3,11.2,3.4,16.7c0,0.4,0.2,0.7,0.2,1.1c0.1,0.6-0.1,0.8-0.7,0.8
				c-0.5,0-1,0-1.6,0h-1.6c-0.4,0-0.7-0.2-0.8-0.6l-0.2-1c-0.2-1-0.4-2-0.6-3c0-0.3-0.1-0.6-0.2-0.9c0-0.3-0.3-0.5-0.6-0.5H154
				c-0.2,0-0.4,0.2-0.5,0.4c-0.1,0.3-0.1,0.6-0.2,0.9l-0.6,3.1c-0.1,0.3-0.1,0.6-0.2,0.9c-0.2,0.5-0.3,0.6-0.8,0.6
				c-0.2,0-0.4,0.1-0.6,0.1C150.2,32,149.4,32,148.5,32z M156.1,21.7c0.5,0,0.7-0.2,0.6-0.7c-0.3-1.3-0.6-2.5-0.8-3.8
				c0-0.1-0.1-0.2-0.2-0.3c-0.1,0-0.2,0.1-0.3,0.2c-0.3,1.3-0.6,2.6-0.8,3.9c-0.1,0.3,0.1,0.5,0.3,0.6c0,0,0.1,0,0.1,0L156.1,21.7
				L156.1,21.7z"/>
			<path id="パス_20" class="st0" d="M174.5,32c-0.7-0.1-0.8-0.2-1-0.9c-0.1-0.2-0.2-0.5-0.2-0.8c-0.6-2.5-1.2-5.1-1.8-7.6
				c-0.1-0.4-0.1-0.7-0.3-1.1c-0.1-0.1-0.2-0.3-0.2-0.3c-0.2,0-0.2,0.2-0.3,0.3v8.6c0,1.4,0,1.4-1.4,1.4c-0.8,0.1-1.7,0.1-2.5,0
				c-0.4,0-0.6-0.2-0.6-0.6c0-0.3,0-0.7,0-1c-0.1-3.7,0-7.4,0-11.1s-0.1-7.4,0-11.1c0-1.4,0-1.4,1.4-1.4h2.5c0.4,0,0.7,0.2,0.8,0.6
				c0.1,0.3,0.2,0.6,0.2,0.9c1.4,5,2.7,10,4,15c0.1,0.4,0.3,0.7,0.4,1.1c0.1,0.1,0.1,0.1,0.2,0.1c0.1,0,0.2-0.1,0.2-0.1
				c0.2-0.3,0.3-0.7,0.4-1l3.3-12.6c0.3-1,0.6-2,0.9-3c0.2-0.8,0.3-0.9,1.1-0.9c1,0,2,0.1,3,0.1c0.5,0,0.6,0.2,0.7,0.7
				c0,0.3,0.1,0.6,0.1,0.9v22.4c0,0.3,0,0.6-0.1,1c0,0.2-0.2,0.4-0.5,0.5c-0.2,0-0.4,0.1-0.6,0.1H182c-1-0.1-1.1-0.1-1.1-1.1v-7.9
				c0-0.3,0-0.6,0-0.9c0-0.2,0.1-0.5-0.2-0.5s-0.3,0.3-0.4,0.5l-0.2,0.7c-0.3,1.2-0.5,2.3-0.8,3.5c-0.3,1.4-0.7,2.9-1,4.4l-0.1,0.8
				c-0.2,0.7-0.3,0.8-1,0.8L174.5,32z"/>
			<path id="パス_21" class="st0" d="M22.2,79.1c-1.2-0.7-2.1-1.9-2.4-3.2c-0.2-0.8-0.3-1.7-0.3-2.5c0-0.6-0.1-1.2,0-1.8
				c0-0.4,0.1-0.5,0.5-0.5c1.1,0,2.2,0,3.4,0c0.3,0,0.5,0.2,0.4,0.6c-0.1,0.6-0.2,1.2-0.2,1.8c0,0.9,0.5,1.7,1.3,2.2
				c0.7,0.4,1.6,0.2,2.1-0.5c0.4-0.5,0.6-1.1,0.6-1.7c0-2.1-0.6-4.2-1.7-6c-0.8-1.2-1.6-2.3-2.5-3.4c-1.3-1.6-2.3-3.4-3.1-5.3
				c-0.4-1.3-0.7-2.6-0.8-3.9c-0.1-1.2,0-2.3,0.2-3.5c0.5-2.6,2.8-4.4,5.4-4.4c0.8-0.1,1.5,0,2.3,0.1c2.2,0.4,4,2.2,4.3,4.4
				c0.2,0.9,0.3,1.8,0.3,2.7c0,0.5-0.1,0.6-0.6,0.6h-3.1c-0.5,0-0.6-0.2-0.6-0.6c0-0.6,0-1.2-0.2-1.7c-0.2-0.9-1-1.5-1.9-1.3
				c-0.1,0-0.3,0.1-0.4,0.1c-0.5,0.2-0.9,0.7-1,1.3c-0.1,0.5-0.1,1.1-0.1,1.7c0.1,2.1,0.8,4,2,5.7c0.7,0.9,1.4,1.7,2.2,2.6
				c1.9,2.3,3.2,5.1,3.5,8c0.3,1.5,0.3,3.1,0.1,4.7c-0.3,2.4-2.3,4.4-4.7,4.7C25.5,80.3,23.7,80,22.2,79.1z"/>
			<path id="パス_22" class="st0" d="M39.1,79.4c-0.9-0.1-1-0.2-1-1c0-0.3,0-0.6,0-0.9v-22c0-0.3,0-0.7,0-1c0-0.3,0.2-0.6,0.6-0.6
				h3.1c0.6,0,0.7,0.2,0.8,0.8v8.6c0,0.9,0.1,1,1,1H46c0.5,0,0.7-0.2,0.7-0.7v-8.2c0-1.4,0.1-1.4,1.5-1.4h1.8c1.2,0,1.2,0.1,1.3,1.2
				v22.7c0,0.4-0.1,0.8-0.1,1.1c0,0.2-0.2,0.4-0.5,0.5c-0.1,0-0.3,0.1-0.5,0.1h-2.7c-0.7-0.1-0.8-0.2-0.8-0.9c0-0.3-0.1-0.6-0.1-0.9
				v-7.5c0-1.3,0-1.3-1.3-1.4c-0.7,0-1.4,0-2.1,0.1c-0.5,0-0.7,0.2-0.7,0.7V78c0,1.4,0,1.4-1.5,1.4L39.1,79.4z"/>
			<path id="パス_23" class="st0" d="M57.9,79.4c-0.6,0-0.7-0.2-0.7-0.8c0-0.3,0-0.6,0-1V66.6c0-3.7-0.1-7.5,0-11.2
				c0-1.5,0-1.5,1.4-1.5c0.8,0,1.6,0,2.3,0.1c0.5,0,0.7,0.1,0.7,0.7c0,0.3,0.1,0.6,0.1,0.9v22.3c0,0.4,0,0.7-0.1,1.1
				c0,0.2-0.2,0.4-0.5,0.5h-0.2C59.9,79.4,58.9,79.5,57.9,79.4z"/>
			<path id="パス_24" class="st0" d="M76.8,79.4c-0.7-0.1-0.8-0.2-1-0.9c-0.1-0.2-0.2-0.5-0.2-0.8c-0.6-2.5-1.2-5.1-1.8-7.6
				c-0.1-0.4-0.1-0.7-0.3-1.1c-0.1-0.1-0.2-0.3-0.2-0.3c-0.2,0-0.2,0.1-0.3,0.3v8.6c0,1.4,0,1.4-1.4,1.4c-0.8,0-1.7,0-2.5,0
				c-0.4,0-0.6-0.2-0.6-0.6c0-0.3,0-0.7,0-1c-0.1-3.7,0-7.4,0-11.1s-0.1-7.4,0-11.1c0-1.4,0-1.4,1.4-1.4h2.5c0.4,0,0.7,0.2,0.8,0.6
				c0,0.3,0.1,0.6,0.2,0.9c1.4,5,2.7,10,4,15c0.1,0.4,0.3,0.7,0.4,1.1c0.1,0.1,0.1,0.1,0.2,0.1c0,0,0.1-0.1,0.1-0.1
				c0.2-0.3,0.3-0.7,0.4-1L82,57.8c0.3-1,0.6-2,0.9-3c0.2-0.8,0.3-0.9,1.1-0.9c1,0,2,0.1,3,0.1c0.5,0.1,0.6,0.2,0.7,0.7
				c0,0.3,0.1,0.6,0.1,0.9v22.4c0,0.3,0,0.6-0.1,1c0,0.2-0.2,0.4-0.5,0.5c-0.2,0-0.4,0.1-0.6,0.1h-2.3c-1-0.1-1.1-0.1-1.1-1.1v-7.9
				c0-0.3,0-0.6,0-0.9c0-0.2,0.1-0.5-0.2-0.5s-0.3,0.3-0.4,0.5L82.4,70c-0.3,1.2-0.5,2.3-0.8,3.5c-0.3,1.4-0.7,2.9-1,4.4l-0.2,0.8
				c-0.2,0.7-0.3,0.8-1,0.8L76.8,79.4z"/>
			<path id="パス_25" class="st0" d="M93.7,79.4c-0.5,0-0.7-0.2-0.6-0.7l0.2-1c1.5-7.4,3-14.9,4.6-22.4c0.3-1.4,0.3-1.4,1.7-1.4
				h2.8c1.2,0,1.2,0.1,1.4,1.2c0.4,1.9,0.8,3.8,1.2,5.8c1.2,5.6,2.3,11.2,3.4,16.7c0,0.4,0.1,0.7,0.2,1.1c0.1,0.6-0.1,0.8-0.7,0.8
				c-0.6,0.1-1.1,0-1.6,0h-1.6c-0.4,0-0.7-0.2-0.8-0.6l-0.2-1c-0.2-1-0.4-2-0.6-3c0-0.3-0.1-0.6-0.2-0.9c0-0.3-0.3-0.5-0.6-0.5h-3.2
				c-0.2,0-0.4,0.2-0.5,0.4c-0.1,0.3-0.1,0.6-0.2,0.9L97.9,78c-0.1,0.3-0.1,0.6-0.2,0.9c-0.2,0.5-0.3,0.6-0.8,0.6
				c-0.2,0-0.4,0.1-0.6,0.1C95.4,79.5,94.6,79.5,93.7,79.4z M101.3,69.1c0.5-0.1,0.7-0.2,0.6-0.7c-0.3-1.3-0.6-2.5-0.8-3.8
				c0-0.1-0.1-0.2-0.2-0.3c-0.1,0-0.2,0.1-0.3,0.2c-0.3,1.3-0.6,2.6-0.8,3.9c-0.1,0.3,0.1,0.5,0.3,0.6c0,0,0.1,0,0.1,0L101.3,69.1
				L101.3,69.1z"/>
			<path id="パス_26" class="st0" d="M124.4,78.3c-0.8-1.8-1.6-3.7-2.5-5.5c-0.9-2.1-1.9-4.2-2.8-6.3l-0.5-0.9
				c-0.1,0-0.1-0.1-0.2-0.1c-0.1,0-0.1,0.1-0.1,0.1c0,0.4-0.1,0.8-0.1,1.1v11.1c0,0.3,0,0.6-0.1,1c0,0.2-0.2,0.4-0.5,0.5
				c-0.2,0-0.4,0.1-0.6,0.1h-2.3c-1-0.1-1.1-0.1-1.1-1.1c0-0.1,0-0.3,0-0.5c0-7.4-0.1-14.8,0-22.2c0-1.6,0-1.6,1.5-1.6
				c0.8,0,1.6-0.1,2.3-0.1c0.5-0.1,0.9,0.2,1.1,0.7c0.1,0.3,0.2,0.6,0.4,0.9l4.7,10.5c0.1,0.4,0.3,0.8,0.7,1.1
				c0.5-0.4,0.3-0.9,0.3-1.3V55.4c0-0.3,0-0.7,0.1-1c0-0.2,0.2-0.4,0.4-0.4c0,0,0,0,0,0c0.2,0,0.4-0.1,0.6-0.1h2.3
				c1,0,1.1,0.1,1.1,1.2V78c0,1.5,0,1.5-1.4,1.5h-1.7C124.9,79.4,124.9,79.4,124.4,78.3z"/>
			<path id="パス_27" class="st0" d="M139.3,78.9c0-0.3-0.1-0.7-0.1-1V59.6c-0.1-1.1-0.1-1.1-1.2-1.1h-2.7c-1.1,0-1.2-0.1-1.2-1.2
				c-0.1-0.9-0.1-1.8,0-2.6c0-0.6,0.1-0.7,0.7-0.7c0.3,0,0.5-0.1,0.8-0.1h11.7c0.3,0,0.5,0,0.8,0.1c0.5,0,0.7,0.2,0.7,0.7
				c0,1,0,2,0,3c0,0.6-0.2,0.8-0.9,0.8h-2.7c-1.6,0-1.6,0-1.6,1.5v18.8c0,0.4-0.2,0.6-0.6,0.6h-3.3c-0.3,0-0.5-0.2-0.6-0.5
				C139.3,78.9,139.3,78.9,139.3,78.9z"/>
			<path id="パス_28" class="st0" d="M152.9,73.2V60c0-3.6,2.9-6.5,6.5-6.5s6.5,2.9,6.5,6.5v13.2c0,3.6-2.9,6.5-6.5,6.5
				S152.9,76.7,152.9,73.2z M161.5,73.2V60c0-1.2-0.9-2.1-2.1-2.1c-1.2,0-2.1,0.9-2.1,2.1v13.2c0,1.2,1,2.1,2.1,2.1
				C160.5,75.2,161.5,74.3,161.5,73.2z"/>
		</g>
	</g>
	<path id="パス_29" class="st0" d="M307.8,416.8c-1-13.4-8-23.1-19.8-27.4l0,0c-4.3-1.5-8.8-2.3-13.3-2.3
		c-13,0.1-25.4,5.5-34.3,14.9c-5.8,6.2-8.7,13.4-8.2,20.2c0.7,9.6,8.1,17,16.9,17c5.4,0,11.2-3.2,17.2-9.5
		c7.7-8.3,13.4-18.3,17.8-27.1c4.4,1.9,8.7,5.2,9.3,13.9c0.8,10.6-6.5,19.5-19.9,24.4c-2.2,0.9-4,2.7-5,4.9
		c-1.9,4.5,0.1,10.6,0.2,10.9l0.5,1.5l1.9-0.7C283.6,452.8,309.7,443.4,307.8,416.8z M278.7,406.1L278.7,406.1
		c-3.9,7.3-8.7,14.9-14.7,21.5c-5.4,5.7-10.5,8.6-15,8.6c-7.2,0-13.2-6.2-13.8-14.2c-0.4-5.9,2.2-12.3,7.4-17.9
		c8.1-8.4,19.2-13.4,30.9-13.8c-1,2.7-2.1,5.4-3.4,7.9c-6.5,0.8-12.7,3.5-17.7,7.7c-6,4.8-9.3,10.8-8.9,16c0.2,2.8,1.6,6.1,5.1,6.1
		c3,0,5.8-2,10.8-7.5c5.3-6.1,9.8-12.9,13.2-20.2l1.3-2.5c0,0,2.1-4.8,3-7.5c2.8,0.1,5.5,0.6,8.2,1.4
		C283.2,396.6,281.2,401.5,278.7,406.1L278.7,406.1z M268.3,401.6c-3.1,6.1-6.9,11.7-11.4,16.8c-5.2,5.7-7.2,6.5-8.5,6.5
		c-1.7,0-2-2.9-2-3.2c-0.3-4.2,2.6-9.2,7.8-13.4C258.3,404.9,263.1,402.6,268.3,401.6L268.3,401.6z M271.2,454.1
		c-0.4-2-0.8-5,0.1-7.1c0.7-1.4,1.8-2.5,3.3-3.2c14.5-5.4,22.7-15.7,21.8-27.5c-0.8-11.2-7.5-15-11.2-16.5c0.9-2.2,1.8-4.6,2.6-7.1
		c7.3,2.9,15.9,9.4,17,24.4C306.5,440.5,283.4,449.6,271.2,454.1L271.2,454.1z"/>
	<g id="グループ_5" transform="translate(331.708 358.286)">
		<path id="パス_30" class="st0" d="M21,29.2c0,6.9,5.5,12.5,12.4,12.6h0l0.3,0l12.3,0v6.4H25.2v4.6c0,6.9,5.5,12.5,12.4,12.6h0
			l0.3,0l8.1,0v6.4H21v4.6c0,6.9,5.5,12.6,12.4,12.6h0l0.3,0l41.6,0c7,0,12.6-5.7,12.6-12.6v-4.6h-6.2c1.5-0.6,2.9-1.6,4-2.7
			l1.1-1.1l-6.6-6.6c2.2-2.3,3.4-5.4,3.5-8.6v-4.6H62.9v-6.4l12.3,0c7,0,12.6-5.7,12.6-12.6v-4.7H21V29.2z M48.7,65.6l11.4,0v6.4
			H48.7V65.6z M84.8,75v1.6c0,5.3-4.3,9.6-9.6,9.6H33.6c-5.3,0-9.6-4.3-9.6-9.6V75H84.8z M62.9,71.9v-6.4h2.6
			c0.6,1.3,1.3,2.5,2.3,3.6l0,0l0.3,0.3l0,0c1.1,1,2.4,1.9,3.8,2.5L62.9,71.9z M70.2,67.2c-0.5-0.5-0.9-1-1.2-1.6
			c-0.6-0.9-1-2-1.2-3.1c-0.6-2.6,0-5.4,1.6-7.6l6.4,6.4l2.3,2.3l4.5,4.5C78.6,70.6,73.6,70.3,70.2,67.2L70.2,67.2z M80.6,51.3v1.6
			c0,2.4-0.9,4.7-2.5,6.4l-8-8H80.6z M68.3,51.3l-0.2,0.2c-2.9,2.9-4.2,6.9-3.5,10.9H37.8c-5.3,0-9.6-4.3-9.6-9.6v-1.6L68.3,51.3
			L68.3,51.3z M60.2,48.3H48.7v-6.4l11.4,0V48.3z M24.1,27.7h60.8v1.6c0,5.3-4.3,9.5-9.6,9.6H33.6c-5.3,0-9.6-4.3-9.6-9.6L24.1,27.7
			z"/>
		<path id="パス_31" class="st0" d="M104.2,0H0v121.8h4.6c5.4,0,10.3-3.5,12-8.7l17.2,0l58.5,0c1.7,5.2,6.5,8.7,12,8.7h4.6V0
			H104.2z M3.1,3.1h102.7v1.6c0,5.3-4.3,9.6-9.6,9.6h-1.6h-3.1l-57.8,0l-16.5,0h-3.1h-1.6c-5.3,0-9.6-4.3-9.6-9.6V3.1z M91.6,109.2
			c0,0.3,0.1,0.6,0.1,0.8l-57.9,0l-16.6,0c0-0.3,0.1-0.6,0.1-0.8V98.9h74.3L91.6,109.2z M17.3,95.8l0-62.7l0-15.8l16.5,0l57.8,0
			l0,15.8l0,62.7L17.3,95.8z M4.6,118.8H3.1V12.8c2.4,2.8,5.9,4.4,9.6,4.5h1.6l0,15.8l0,62.7v3.1v10.3c0,0.3-0.1,0.6-0.1,0.8
			c0,0.5-0.1,1-0.3,1.5c-0.1,0.5-0.3,1-0.5,1.5C11.8,116.5,8.4,118.7,4.6,118.8L4.6,118.8z M105.8,97.4v21.4h-1.6
			c-3.7,0-7.1-2.2-8.7-5.6c-0.4-1-0.7-2-0.8-3.1c0-0.3-0.1-0.6-0.1-0.8V98.9v-1.5v-1.5l0-62.7l0-15.8h1.6c3.7,0,7.2-1.6,9.6-4.5
			L105.8,97.4L105.8,97.4z"/>
	</g>
	<g id="グループ_6" transform="translate(80.597 345.954)">
		<path id="パス_32" class="st0" d="M46.4,39.6l3.2,0L35.7,53.4l3.3,3.3c4.9,4.9,12.9,4.9,17.9,0l6.3-6.3V75h4.6
			c7,0,12.6-5.7,12.6-12.6l0-12.1l6.3,6.3c4.9,4.9,12.9,4.9,17.9,0l3.3-3.3L94.1,39.6l4.6,0c7,0,12.6-5.7,12.6-12.6v-4.6H80.5l0-9.7
			c0-7-5.7-12.6-12.6-12.6h-4.6v22.3H33.7V27C33.8,33.9,39.4,39.6,46.4,39.6z M54.7,54.5c-3.7,3.7-9.8,3.7-13.5,0c0,0,0,0,0,0
			l-1.1-1.1l13.8-13.8l9.3,0h3.1l3.3,0l-3.3,3.3L63.2,46L54.7,54.5z M77.4,42.9v4.3l0,15.1c0,5.3-4.3,9.5-9.5,9.5h-1.6V47.3l5.6-5.6
			l2.2-2.1l3.3,0L77.4,42.9z M103.6,53.4l-1.1,1.1c-3.7,3.7-9.8,3.7-13.5,0c0,0,0,0,0,0L80.5,46v-6.4l9.3,0L103.6,53.4z M66.3,3.1
			h1.6c5.3,0,9.5,4.3,9.5,9.5l0,9.7H66.3L66.3,3.1z M36.8,25.4h71.5V27c0,5.3-4.3,9.5-9.5,9.5l-7.7,0H52.6l-6.3,0
			c-5.3,0-9.5-4.3-9.5-9.5L36.8,25.4z"/>
		<path id="パス_33" class="st0" d="M55.8,100.2c7,0,12.6-5.7,12.6-12.6v-4.6H43.3l0-9.7c0-7-5.7-12.6-12.6-12.6H26v22.3H2.4v4.6
			c0,6.5,5,12,11.5,12.6L0,114l3.3,3.3c4.9,4.9,12.9,4.9,17.9,0l4.9-4.9v21.8h4.6c7,0,12.6-5.7,12.6-12.6l0-9.2l4.9,4.9
			c4.9,4.9,12.9,4.9,17.9,0l3.3-3.3l-13.8-13.8H55.8z M29.1,63.7h1.6c5.3,0,9.5,4.3,9.5,9.5l0,9.7H29.1V63.7z M19,115.1
			c-3.7,3.7-9.8,3.7-13.5,0c0,0,0,0,0,0L4.4,114l13.8-13.8l7.8,0h3.1h2l2.8,0l-1.4,1.4l-3.4,3.4l-3.1,3.1L19,115.1z M40.2,105v4.4
			l0,12.2c0,5.3-4.3,9.5-9.5,9.5h-1.6v-21.8l5.6-5.6l2.2-2.2l1.4-1.4h2L40.2,105z M41.3,97.1h-1.1H37h-2.3h-2.3h-3.2H26l-4.8,0h-4.4
			H15c-5.3,0-9.5-4.3-9.5-9.5V86h59.9v1.6c0,5.3-4.3,9.5-9.5,9.5h-3.3l-4.4,0l-4.8,0L41.3,97.1z M64.9,114l-1.1,1.1
			c-3.7,3.7-9.8,3.7-13.5,0c0,0,0,0,0,0l-7.1-7l0-7.9l7.9,0L64.9,114z"/>
		<path id="パス_34" class="st0" d="M128.4,100.2h0.3c7,0,12.6-5.7,12.6-12.6v-4.6h-25.1l0-9.7c0-7-5.7-12.6-12.6-12.6h-4.6v22.3
			H75.3v4.6c0,6.5,5,12,11.5,12.6L72.9,114l3.3,3.3c4.9,4.9,12.9,4.9,17.9,0l4.9-4.9v21.8h4.6c7,0,12.6-5.7,12.6-12.6l0-9.2l4.9,4.9
			c4.9,4.9,12.9,4.9,17.9,0l3.3-3.3L128.4,100.2z M102,63.7h1.6c5.3,0,9.5,4.3,9.5,9.5l0,9.7H102V63.7z M91.9,115.1
			c-3.7,3.7-9.8,3.7-13.5,0c0,0,0,0,0,0l-1.1-1.1l13.8-13.8l7.8,0h3.1h2l2.8,0l-1.4,1.4L102,105l-3.1,3.1L91.9,115.1z M113.1,105
			v4.4l0,12.2c0,5.3-4.3,9.5-9.5,9.5H102v-21.8l5.6-5.6l2.2-2.2l1.4-1.4h2L113.1,105z M114.3,97.1h-1.1h-3.2h-2.3h-2.3H102h-3.1
			l-4.8,0h-4.4h-1.9c-5.3,0-9.5-4.3-9.5-9.5V86h59.9v1.6c0,5.3-4.3,9.5-9.5,9.5h-3.3l-4.4,0l-4.8,0L114.3,97.1z M136.8,115.1
			c-3.7,3.7-9.8,3.7-13.5,0c0,0,0,0,0,0l-7.1-7l0-7.9l7.8,0l13.8,13.8L136.8,115.1z"/>
	</g>
</g>
</svg>
